<svg width="201" height="54" viewBox="0 0 201 54" fill="none" xmlns="http://www.w3.org/2000/svg">
<path d="M31.3582 31.282L23.0345 16.479L22.5253 17.3562L20.8458 20.2474L20.3388 21.1246L23.5169 26.8041L16.9798 26.9071L16.4706 27.7821L14.7934 30.6733L14.2842 31.5483L31.3582 31.282Z" fill="white"/>
<path d="M46.2571 27.7442L45.7479 26.8692L39.2109 26.7663L42.3912 21.0845L41.882 20.2096L40.2025 17.3183V17.3161L39.6933 16.4434L31.3584 31.2821L48.4436 31.5104L46.2571 27.7442Z" fill="white"/>
<path d="M54.561 54H8.3014L16.8775 39.6334L0 39.8975L23.1465 0.0380424L31.3541 14.6329L39.5729 0L51.7894 21.024V21.0285L62.7016 39.8259L45.8888 39.5999L54.5587 53.9978L54.561 54ZM15.7407 49.7885H47.0882L38.3557 35.2876L55.3092 35.5137L46.9006 21.0397V21.0352L39.6354 8.52596L31.3564 23.264L23.0885 8.56177L7.40582 35.5674L24.3861 35.3033L15.7407 49.7885Z" fill="white"/>
<path d="M28.0398 45.8771L31.3965 40.2983L34.7555 45.8771H40.1468L31.3585 31.2822L22.6484 45.8771H28.0398Z" fill="white"/>
<path d="M73.0798 17.8555H67.6885V13.5142H83.4538V17.8555H78.0624V31.3874H73.082V17.8555H73.0798Z" fill="white"/>
<path d="M89.5418 13.3862H94.3436L101.995 31.387H96.6551L95.3463 28.1959H88.414L87.1298 31.387H81.8926L89.5441 13.3862H89.5418ZM93.9081 24.3402L91.9047 19.2604L89.8768 24.3402H93.9081Z" fill="white"/>
<path d="M103.748 13.5142H109.012L113.3 20.4334L117.588 13.5142H122.852V31.3851H117.896V21.1226L113.3 28.1179H113.197L108.628 21.1741V31.3874H103.75V13.5142H103.748Z" fill="white"/>
<path d="M131.297 13.5142H139C143.545 13.5142 146.473 15.8124 146.473 19.7956V19.8471C146.473 24.0608 143.212 26.2807 138.743 26.2807H136.277V31.3874H131.297V13.5142ZM138.64 22.4004C140.411 22.4004 141.49 21.5075 141.49 20.0776V20.0261C141.49 18.4932 140.438 17.6764 138.613 17.6764H136.277V22.4004H138.64Z" fill="white"/>
<path d="M148.583 13.5142H153.563V20.2029H159.958V13.5142H164.938V31.3851H159.958V24.5934H153.563V31.3851H148.583V13.5142Z" fill="white"/>
<path d="M174.343 13.3862H179.144L186.796 31.387H181.456L180.147 28.1959H173.215L171.931 31.387H166.693L174.345 13.3862H174.343ZM178.707 24.3402L176.703 19.2604L174.675 24.3402H178.707Z" fill="white"/>
<path d="M190.626 17.8555H185.234V13.5142H201V17.8555H195.608V31.3874H190.628V17.8555H190.626Z" fill="white"/>
<path d="M78.5628 40.2134H73.8705V42.2498H78.4556V43.438H73.8705V45.4744H78.5628V46.6627H72.5908V39.0273H78.5628V40.2156V40.2134Z" fill="white"/>
<path d="M87.7845 45.4744V46.6627H81.8125V39.0273H83.0922V45.4744H87.7845Z" fill="white"/>
<path d="M96.6302 40.2134H91.9379V42.2498H96.523V43.438H91.9379V45.4744H96.6302V46.6627H90.6582V39.0273H96.6302V40.2156V40.2134Z" fill="white"/>
<path d="M104.945 44.1161H106.225V44.9642C106.225 46.1189 105.702 46.6604 104.518 46.6604H101.532C100.349 46.6604 99.8262 46.1189 99.8262 44.9642V40.7236C99.8262 39.5689 100.349 39.0273 101.532 39.0273H104.518C105.702 39.0273 106.225 39.5689 106.225 40.7236V41.5717H104.945V40.7236C104.945 40.3834 104.807 40.2156 104.518 40.2156H101.532C101.244 40.2156 101.106 40.3857 101.106 40.7236V44.9642C101.106 45.3043 101.244 45.4722 101.532 45.4722H104.518C104.807 45.4722 104.945 45.3021 104.945 44.9642V44.1161Z" fill="white"/>
<path d="M115.393 39.0273V40.2156H112.833V46.6627H111.554V40.2156H108.994V39.0273H115.393Z" fill="white"/>
<path d="M124.668 42.4196C124.668 43.5743 124.146 44.1047 123.004 44.1159L124.496 46.6602H123.013L121.521 44.1159H119.549V46.6602H118.27V39.0249H122.962C124.123 39.0249 124.668 39.5664 124.668 40.7211V42.4174V42.4196ZM123.388 40.7234C123.388 40.3832 123.25 40.2154 122.962 40.2154H119.549V42.9298H122.962C123.25 42.9298 123.388 42.7598 123.388 42.4219V40.7256V40.7234Z" fill="white"/>
<path d="M127.972 46.6602V39.0249H129.251V46.6602H127.972Z" fill="white"/>
<path d="M137.726 44.1161H139.006V44.9642C139.006 46.1189 138.483 46.6604 137.3 46.6604H134.314C133.13 46.6604 132.607 46.1189 132.607 44.9642V40.7236C132.607 39.5689 133.13 39.0273 134.314 39.0273H137.3C138.483 39.0273 139.006 39.5689 139.006 40.7236V41.5717H137.726V40.7236C137.726 40.3834 137.588 40.2156 137.3 40.2156H134.314C134.026 40.2156 133.887 40.3857 133.887 40.7236V44.9642C133.887 45.3043 134.026 45.4722 134.314 45.4722H137.3C137.588 45.4722 137.726 45.3021 137.726 44.9642V44.1161Z" fill="white"/>
</svg>
