<svg width="16" height="16" viewBox="0 0 16 16" fill="none" xmlns="http://www.w3.org/2000/svg">
<path d="M7.32765 9.20908L0.422443 4.18677C0.409078 4.19358 0.413755 4.1912 0.400391 4.198V11.798C0.400391 12.6375 1.08092 13.318 1.92039 13.318H14.0804C14.9199 13.318 15.6004 12.6375 15.6004 11.798V4.1798C15.5979 4.17855 15.5988 4.17899 15.5963 4.17773L8.6733 9.20931C8.27211 9.50089 7.72874 9.5008 7.32765 9.20908Z" fill="white"/>
<path d="M8.6728 7.33191L14.8054 2.87215C14.5906 2.7546 14.3433 2.68164 14.0799 2.68164H1.91988C1.65642 2.68164 1.41322 2.7546 1.19434 2.87215L7.32696 7.33191C7.72814 7.62365 8.27162 7.62365 8.6728 7.33191Z" fill="white"/>
</svg>
