<svg width="16" height="17" viewBox="0 0 16 17" fill="none" xmlns="http://www.w3.org/2000/svg">
<path d="M7.99953 0C4.60468 0 1.84277 2.7619 1.84277 6.15672C1.84277 10.3698 7.35247 16.5548 7.58705 16.8161C7.80738 17.0615 8.19208 17.0611 8.41201 16.8161C8.64659 16.5548 14.1563 10.3698 14.1563 6.15672C14.1562 2.7619 11.3944 0 7.99953 0ZM7.99953 9.25434C6.29149 9.25434 4.90194 7.86476 4.90194 6.15672C4.90194 4.44869 6.29153 3.05914 7.99953 3.05914C9.70753 3.05914 11.0971 4.44872 11.0971 6.15676C11.0971 7.86479 9.70753 9.25434 7.99953 9.25434Z" fill="white"/>
</svg>
