<svg width="16" height="16" viewBox="0 0 16 16" fill="none" xmlns="http://www.w3.org/2000/svg">
<path fill-rule="evenodd" clip-rule="evenodd" d="M11.1833 2.01726C11.3491 1.97878 11.5233 2.00517 11.6703 2.09103C11.8173 2.17689 11.9258 2.3157 11.9737 2.47903C12.0216 2.64235 12.0053 2.81782 11.9279 2.96946C11.8506 3.12109 11.7183 3.23742 11.558 3.2946L11.4833 3.31593L9.99995 3.6586V6.6666H12.6666C13.003 6.66649 13.327 6.79353 13.5736 7.02226C13.8203 7.25099 13.9714 7.56449 13.9966 7.89993L14 7.99993V12.6666C14.0001 13.003 13.873 13.327 13.6443 13.5736C13.4156 13.8203 13.1021 13.9714 12.7666 13.9966L12.6666 13.9999H3.99995C3.66357 14 3.33957 13.873 3.09292 13.6443C2.84627 13.4155 2.69518 13.102 2.66995 12.7666L2.66662 12.6666V5.33326C2.50941 5.33348 2.35719 5.27814 2.23683 5.17701C2.11647 5.07588 2.03572 4.93547 2.00884 4.78058C1.98196 4.62569 2.01069 4.46629 2.08994 4.33052C2.16919 4.19475 2.29386 4.09136 2.44195 4.0386L2.51662 4.01726L11.1833 2.01726ZM9.99995 9.33326H9.33328C9.17 9.33329 9.01239 9.39323 8.89037 9.50174C8.76835 9.61025 8.69039 9.75976 8.67128 9.92193L8.66662 9.99993V12.6666H10.6666V9.99993C10.6666 9.83664 10.6066 9.67904 10.4981 9.55702C10.3896 9.43499 10.2401 9.35704 10.078 9.33793L9.99995 9.33326ZM5.33328 4.73526L3.99995 5.04326V12.6666H5.33328V4.73526ZM8.66662 3.96593L6.66662 4.42793V6.6666H8.66662V3.96593Z" fill="white"/>
</svg>
