<svg width="92" height="98" viewBox="0 0 92 98" fill="none" xmlns="http://www.w3.org/2000/svg">
<path fill-rule="evenodd" clip-rule="evenodd" d="M7.70236 70.2245C7.85217 71.2403 7.15002 72.1833 6.13869 72.3321C5.11818 72.4812 4.18185 71.7778 4.03185 70.7618C3.88205 69.7477 4.5842 68.803 5.59553 68.6542C6.61623 68.5071 7.56193 69.2095 7.70236 70.2245ZM46.0002 20.1774C49.8535 20.1774 52.9772 23.3011 52.9772 27.1544C52.9772 31.0077 49.8535 34.1313 46.0002 34.1313C42.1469 34.1313 39.0233 31.0077 39.0233 27.1544C39.0233 23.3011 42.1469 20.1774 46.0002 20.1774ZM59.7197 47.6888C58.9789 40.7661 53.1194 35.3743 46 35.3743C38.8805 35.3743 33.0211 40.7661 32.2803 47.6888V50.4778C32.2803 52.5089 33.9369 54.1655 35.968 54.1655H56.032C58.0631 54.1655 59.7197 52.5089 59.7197 50.4778V47.6888ZM25.1485 25.5315C28.0313 25.5315 30.3682 27.8685 30.3682 30.7513C30.3682 33.6341 28.0313 35.971 25.1485 35.971C22.2656 35.971 19.9287 33.6341 19.9287 30.7513C19.9287 27.8685 22.2656 25.5315 25.1485 25.5315ZM25.1485 37.3653C27.716 37.3653 30.0643 38.303 31.8705 39.854C30.4242 42.0417 29.4692 44.5917 29.1733 47.3563L29.1555 47.5222V47.6894H17.5391C16.7651 47.6894 16.099 47.3528 15.6397 46.7298C15.1803 46.1067 15.0559 45.371 15.285 44.6315C16.5881 40.4228 20.5113 37.3653 25.1485 37.3653ZM66.8518 37.3653C71.4889 37.3653 75.4121 40.4228 76.7154 44.6315C76.9445 45.371 76.8199 46.1067 76.3608 46.7298C75.9014 47.3528 75.2356 47.6894 74.4613 47.6894H62.8449V47.522L62.8272 47.3562C62.5313 44.5915 61.5762 42.0417 60.1297 39.854C61.936 38.303 64.2842 37.3653 66.8518 37.3653ZM66.8518 25.5315C69.7346 25.5315 72.0715 27.8685 72.0715 30.7513C72.0715 33.6341 69.7346 35.971 66.8518 35.971C63.969 35.971 61.632 33.6341 61.632 30.7513C61.632 27.8685 63.969 25.5315 66.8518 25.5315ZM24.3649 4.88174L26.369 10.1601C26.4291 10.3187 26.5694 10.4206 26.7389 10.4288L32.3781 10.7036C32.5547 10.7122 32.7002 10.8233 32.7549 10.9915C32.8094 11.1597 32.7572 11.3351 32.6194 11.446L28.2186 14.9831C28.0863 15.0894 28.0326 15.2542 28.0774 15.4181L29.5586 20.8663C29.6051 21.037 29.5442 21.2097 29.4012 21.3136C29.2582 21.4175 29.075 21.422 28.9272 21.3251L24.2031 18.2329C24.0611 18.1399 23.8877 18.1399 23.7459 18.2329L19.0221 21.3253C18.8742 21.4222 18.691 21.4177 18.5481 21.3138C18.4051 21.2099 18.3442 21.0372 18.3906 20.8665L19.8719 15.4181C19.9164 15.2544 19.8629 15.0896 19.7307 14.9831L15.3299 11.446C15.192 11.3353 15.1399 11.1599 15.1944 10.9915C15.249 10.8233 15.3944 10.7122 15.5711 10.7036L21.2106 10.4288C21.3801 10.4206 21.5203 10.3187 21.5805 10.1601L23.5846 4.88174C23.6473 4.71631 23.7981 4.6124 23.9748 4.6124C24.1514 4.6124 24.302 4.71631 24.3649 4.88174ZM68.4158 4.88174L70.4199 10.1601C70.4801 10.3187 70.6203 10.4206 70.7899 10.4288L76.4291 10.7036C76.6057 10.7122 76.7512 10.8233 76.8059 10.9915C76.8604 11.1597 76.8082 11.3351 76.6703 11.446L72.2695 14.9831C72.1373 15.0894 72.0836 15.2542 72.1283 15.4181L73.6096 20.8663C73.6561 21.037 73.5951 21.2097 73.4522 21.3136C73.3092 21.4175 73.126 21.422 72.9781 21.3251L68.2541 18.2327C68.1121 18.1397 67.9387 18.1397 67.7969 18.2327L63.0731 21.3251C62.9252 21.422 62.7422 21.4175 62.599 21.3136C62.4561 21.2097 62.3951 21.037 62.4416 20.8663L63.9227 15.4179C63.9672 15.2542 63.9137 15.0894 63.7815 14.9829L59.3807 11.4458C59.2428 11.3351 59.1906 11.1597 59.2451 10.9913C59.2998 10.8231 59.4451 10.712 59.6219 10.7034L65.2613 10.4286C65.4309 10.4204 65.5711 10.3185 65.6313 10.1599L67.6354 4.88154C67.6981 4.71611 67.8488 4.61221 68.0256 4.61221C68.2024 4.6124 68.3531 4.71631 68.4158 4.88174ZM46.3904 0.657715L48.3946 5.93604C48.4547 6.09463 48.5949 6.19658 48.7645 6.20479L54.4037 6.47959C54.5803 6.48818 54.7258 6.59951 54.7805 6.76748C54.8352 6.93565 54.7828 7.11123 54.6449 7.22197L50.2442 10.7591C50.1119 10.8653 50.0582 11.0302 50.1029 11.194L51.5842 16.6423C51.6305 16.813 51.5697 16.9856 51.4268 17.0896C51.2838 17.1935 51.1006 17.1979 50.9528 17.1011L46.2287 14.0087C46.0867 13.9157 45.9133 13.9157 45.7715 14.0087L41.0477 17.1011C40.8998 17.1979 40.7168 17.1935 40.5737 17.0896C40.4307 16.9856 40.3697 16.813 40.4162 16.6423L41.8975 11.1938C41.942 11.0302 41.8885 10.8653 41.7563 10.7589L37.3555 7.22178C37.2176 7.11103 37.1654 6.93565 37.2199 6.76729C37.2744 6.59912 37.4199 6.48799 37.5967 6.47939L43.2361 6.20459C43.4057 6.19639 43.5459 6.09443 43.6061 5.93584L45.6102 0.65752C45.6729 0.49209 45.8237 0.388184 46.0004 0.388184C46.177 0.388379 46.3278 0.492285 46.3904 0.657715ZM13.6891 69.4735L23.6928 87.1261L27.4569 84.9538C27.8221 84.7423 28.2529 84.686 28.6649 84.7956L52.3041 90.0019C55.4315 90.838 58.3715 90.4251 61.0588 88.7735L89.7647 70.9329C91.3283 69.9741 91.8059 67.1595 90.7291 65.3571C89.1654 62.7466 85.027 63.0546 79.6524 66.1829L66.059 74.1001C63.2313 75.7519 60.1787 76.2864 56.7424 75.736C56.1151 75.6349 55.4971 75.5271 54.8885 75.4101C54.7572 75.4007 43.3246 72.4288 42.0139 72.0757C41.1617 71.8491 40.6561 70.9782 40.8901 70.1329C41.1149 69.2845 41.9856 68.7825 42.8283 69.0093C44.1672 69.3679 52.276 71.6665 55.3192 72.2583C56.8735 72.3575 58.6805 71.9249 59.2985 69.6366C59.8043 67.7603 58.6992 65.8548 56.7236 65.1702C51.1711 64.1534 45.8059 62.2161 41.4986 60.6562C39.9912 60.112 38.6897 59.6421 37.566 59.2769C34.0266 58.129 30.6651 59.6354 27.5658 61.4343L13.6891 69.4735ZM23.3299 92.9597L8.0301 65.9247C7.88049 65.6606 7.63693 65.4714 7.33713 65.388C7.2342 65.3608 7.13127 65.3468 7.02814 65.3468C6.83166 65.3468 6.64435 65.3966 6.4758 65.4921L1.26974 68.4368C0.717401 68.7487 0.529901 69.4481 0.838885 69.9958L16.1387 97.0308C16.4477 97.5806 17.15 97.7733 17.693 97.4634L22.899 94.5177C23.1612 94.3687 23.3485 94.1226 23.4328 93.8276C23.5172 93.5317 23.4797 93.2237 23.3299 92.9597Z" fill="#25A851"/>
</svg>
